<svg width="32" height="37" viewBox="0 0 32 37" fill="none" xmlns="http://www.w3.org/2000/svg">
<path d="M31.47 6.56085C31.3825 6.34585 31.2775 6.14877 31.155 5.95169C30.91 5.57544 30.5775 5.23502 30.21 4.98419C30.0175 4.85877 29.825 4.75127 29.615 4.66169C29.195 4.48252 28.74 4.37502 28.25 4.37502H26.5V0.791687H23V4.37502H9V0.791687H5.5V4.37502H3.75C3.015 4.37502 2.35 4.60794 1.79 4.98419C1.4225 5.23502 1.09 5.57544 0.845 5.95169C0.7225 6.14877 0.6175 6.34585 0.53 6.56085C0.355 6.99085 0.25 7.45669 0.25 7.95835V33.0417C0.25 33.992 0.618749 34.9035 1.27513 35.5755C1.9315 36.2475 2.82174 36.625 3.75 36.625H28.25C28.74 36.625 29.195 36.5175 29.615 36.3384C29.825 36.2488 30.0175 36.1413 30.21 36.0159C30.5775 35.765 30.91 35.4246 31.155 35.0484C31.5225 34.475 31.75 33.7763 31.75 33.0417V7.95835C31.75 7.45669 31.645 6.99085 31.47 6.56085ZM3.75 33.0417V7.95835H28.25V33.0417H3.75ZM16 22.0767C12.4475 22.0767 5.5 24.0117 5.5 28.4909V31.25H26.5V28.5088C26.5 24.0117 19.5525 22.0767 16 22.0767ZM9.5425 27.6667C10.75 26.6634 13.7075 25.66 16 25.66C18.2925 25.66 21.2675 26.6634 22.4575 27.6667H9.5425ZM16 20.5C18.8875 20.5 21.25 18.0813 21.25 15.125C21.25 12.1688 18.8875 9.75002 16 9.75002C13.1125 9.75002 10.75 12.1688 10.75 15.125C10.75 18.0813 13.1125 20.5 16 20.5ZM16 13.3334C16.9625 13.3334 17.75 14.1396 17.75 15.125C17.75 16.1104 16.9625 16.9167 16 16.9167C15.0375 16.9167 14.25 16.1104 14.25 15.125C14.25 14.1396 15.0375 13.3334 16 13.3334Z" fill="#6E0000"/>
</svg>
