<svg width="41" height="35" viewBox="0 0 41 35" fill="none" xmlns="http://www.w3.org/2000/svg">
<path d="M5.62531 34.8333V18.5H-0.591797L20.1319 0.125L28.4214 7.475V2.16667H34.6385V12.9875L40.8556 18.5H34.6385V34.8333H22.2043V22.5833H18.0595V34.8333H5.62531ZM9.77005 30.75H13.9148V18.5H26.349V30.75H30.4937V14.825L20.1319 5.6375L9.77005 14.825V30.75ZM15.9872 14.4677H24.2766C24.2766 13.3788 23.8622 12.4853 23.0332 11.787C22.2043 11.0887 21.2372 10.7403 20.1319 10.7417C19.0266 10.7417 18.0595 11.0908 17.2306 11.789C16.4016 12.4873 15.9872 13.3802 15.9872 14.4677Z" fill="#6E0000"/>
</svg>
