<svg width="42" height="31" viewBox="0 0 42 31" fill="none" xmlns="http://www.w3.org/2000/svg">
<path d="M38.4618 0.041687H3.49653C1.59092 0.110391 0.0699306 1.6047 0 3.47687V27.5232C0.0699306 29.3953 1.59092 30.8897 3.49653 30.9584H38.4618C40.3674 30.8897 41.8884 29.3953 41.9583 27.5232V3.47687C41.9262 2.57587 41.5474 1.72036 40.8986 1.08287C40.2497 0.445368 39.3789 0.0733 38.4618 0.041687ZM38.4618 27.5232H3.49653V3.47687H38.4618V27.5232ZM24.4757 24.088V21.941C24.4757 19.0898 18.6365 17.647 15.7344 17.647C12.8323 17.647 6.99306 19.0898 6.99306 21.941V24.088H24.4757ZM15.7344 6.91206C14.5752 6.91206 13.4635 7.36446 12.6439 8.16974C11.8242 8.97501 11.3637 10.0672 11.3637 11.206C11.3637 11.7699 11.4768 12.3283 11.6964 12.8493C11.9161 13.3702 12.238 13.8436 12.6439 14.2423C13.4635 15.0476 14.5752 15.5 15.7344 15.5C16.3083 15.5 16.8767 15.389 17.407 15.1732C17.9372 14.9574 18.419 14.6411 18.8249 14.2423C19.2308 13.8436 19.5527 13.3702 19.7723 12.8493C19.992 12.3283 20.105 11.7699 20.105 11.206C20.105 10.6421 19.992 10.0838 19.7723 9.5628C19.5527 9.04183 19.2308 8.56847 18.8249 8.16974C18.419 7.771 17.9372 7.45471 17.407 7.23892C16.8767 7.02312 16.3083 6.91206 15.7344 6.91206ZM24.4757 6.91206V8.62965H34.9653V6.91206H24.4757ZM24.4757 10.3472V12.0648H34.9653V10.3472H24.4757ZM24.4757 13.7824V15.5H31.4688V13.7824H24.4757Z" fill="#6E0000"/>
</svg>
