<svg width="54" height="54" viewBox="0 0 54 54" fill="none" xmlns="http://www.w3.org/2000/svg">
<g clip-path="url(#clip0_238_5)">
<path d="M14.895 24.2775C18.135 30.645 23.355 35.8425 29.7225 39.105L34.6725 34.155C35.28 33.5475 36.18 33.345 36.9675 33.615C39.4875 34.4475 42.21 34.8975 45 34.8975C46.2375 34.8975 47.25 35.91 47.25 37.1475V45C47.25 46.2375 46.2375 47.25 45 47.25C23.8725 47.25 6.75 30.1275 6.75 9C6.75 7.7625 7.7625 6.75 9 6.75H16.875C18.1125 6.75 19.125 7.7625 19.125 9C19.125 11.8125 19.575 14.5125 20.4075 17.0325C20.655 17.82 20.475 18.6975 19.845 19.3275L14.895 24.2775Z" fill="#780015"/>
</g>
<defs>
<clipPath id="clip0_238_5">
<rect width="54" height="54" fill="white"/>
</clipPath>
</defs>
</svg>
