<svg width="122" height="117" viewBox="0 0 122 117" fill="none" xmlns="http://www.w3.org/2000/svg">
<path d="M61 53.0572C53.8136 53.0572 47.6584 50.4574 42.5344 45.2578C37.4104 40.0582 34.8513 33.8151 34.8571 26.5286C34.8571 19.2303 37.4162 12.9813 42.5344 7.78172C47.6526 2.59391 53.8078 0 61 0C68.1922 0 74.3474 2.59391 79.4656 7.78172C84.5838 12.9813 87.1429 19.2303 87.1429 26.5286C87.1429 33.821 84.5838 40.0641 79.4656 45.2578C74.3474 50.4515 68.1922 53.0513 61 53.0572ZM0 116.991V102.445C0 98.7955 1.04572 95.3821 3.13714 92.2046C5.23438 89.0212 8.052 86.5511 11.59 84.7943C19.8163 80.7914 28.0455 77.7907 36.2776 75.7922C44.5155 73.7879 52.7563 72.7857 61 72.7857C69.2495 72.7857 77.4903 73.7879 85.7224 75.7922C93.9545 77.7966 102.181 80.7973 110.401 84.7943C113.945 86.5511 116.763 89.0212 118.854 92.2046C120.951 95.3821 122 98.7955 122 102.445V117L0 116.991ZM8.71429 108.148H113.286V102.436C113.286 100.479 112.664 98.6363 111.421 96.909C110.172 95.1876 108.446 93.7315 106.245 92.5406C99.0756 89.0153 91.6801 86.3152 84.058 84.4406C76.4475 82.56 68.7615 81.6197 61 81.6197C53.2443 81.6197 45.5583 82.56 37.942 84.4406C30.3199 86.3152 22.9244 89.0153 15.7554 92.5406C13.5478 93.7315 11.8224 95.1876 10.5791 96.909C9.33591 98.6363 8.71429 100.482 8.71429 102.445V108.148ZM61 44.2143C65.7929 44.2143 69.8973 42.4811 73.3133 39.0147C76.7293 35.5483 78.4344 31.3863 78.4286 26.5286C78.4286 21.665 76.7235 17.5 73.3133 14.0336C69.9031 10.5672 65.7987 8.83697 61 8.84287C56.2071 8.84287 52.1056 10.5731 48.6954 14.0336C45.2852 17.4941 43.5772 21.6591 43.5714 26.5286C43.5714 31.3922 45.2794 35.5542 48.6954 39.0147C52.1114 42.4753 56.213 44.2085 61 44.2143Z" fill="black"/>
</svg>
